<?xml version="1.0" encoding="UTF-8"?>
<svg width="189px" height="192px" viewBox="0 0 189 192" version="1.1" xmlns="http://www.w3.org/2000/svg" xmlns:xlink="http://www.w3.org/1999/xlink">
    <!-- Generator: Sketch 43.2 (39069) - http://www.bohemiancoding.com/sketch -->
    <title>Logo Rounded</title>
    <desc>Created with Sketch.</desc>
    <defs></defs>
    <g id="Page-1" stroke="none" stroke-width="1" fill="none" fill-rule="evenodd">
        <g id="Logo-Rounded" transform="translate(0.000000, -3.000000)">
            <g id="BDK-Logo" transform="translate(0.000000, 3.000000)">
                <rect id="Rectangle" fill="#FFFFFF" x="4" y="4" width="181" height="184"></rect>
                <rect id="Rectangle-Rounded" stroke="#13161F" stroke-width="5" x="2.5" y="2.5" width="184" height="187" rx="10"></rect>
                <path d="M25.03168,84.4128 L27.01312,84.4128 C29.2864114,84.4128 30.9145551,84.1209629 31.8976,83.53728 C32.8806449,82.9535971 33.37216,82.0166465 33.37216,80.7264 C33.37216,79.4361535 32.8806449,78.4992029 31.8976,77.91552 C30.9145551,77.3318371 29.2864114,77.04 27.01312,77.04 L25.03168,77.04 L25.03168,84.4128 Z M25.03168,70.31232 L26.69056,70.31232 C29.5168141,70.31232 30.92992,69.1910512 30.92992,66.94848 C30.92992,64.7059088 29.5168141,63.58464 26.69056,63.58464 L25.03168,63.58464 L25.03168,70.31232 Z M16,56.67264 L29.45536,56.67264 C32.650256,56.67264 35.0771117,57.4406323 36.736,58.97664 C38.3948883,60.5126477 39.22432,62.7244656 39.22432,65.61216 C39.22432,67.3632088 38.9094431,68.8147142 38.27968,69.96672 C37.6499169,71.1187258 36.6899265,72.094076 35.39968,72.8928 C36.6899265,73.1385612 37.7881555,73.5148775 38.6944,74.02176 C39.6006445,74.5286425 40.3379172,75.1507163 40.90624,75.888 C41.4745628,76.6252837 41.8815988,77.4547154 42.12736,78.37632 C42.3731212,79.2979246 42.496,80.2809548 42.496,81.32544 C42.496,82.9536081 42.2118428,84.3974337 41.64352,85.65696 C41.0751972,86.9164863 40.2764851,87.9763157 39.24736,88.83648 C38.2182349,89.6966443 36.9664074,90.3417578 35.49184,90.77184 C34.0172726,91.2019222 32.3584092,91.41696 30.5152,91.41696 L16,91.41696 L16,56.67264 Z M55.44448,67.77792 L55.44448,91.41696 L47.104,91.41696 L47.104,67.77792 L55.44448,67.77792 Z M46.55104,58.70016 C46.55104,58.0550368 46.6739188,57.4483228 46.91968,56.88 C47.1654412,56.3116772 47.5033578,55.8124822 47.93344,55.3824 C48.3635222,54.9523178 48.8627172,54.6144012 49.43104,54.36864 C49.9993628,54.1228788 50.6060768,54 51.2512,54 C51.8963232,54 52.5030372,54.1228788 53.07136,54.36864 C53.6396828,54.6144012 54.1388778,54.9523178 54.56896,55.3824 C54.9990422,55.8124822 55.3369588,56.3116772 55.58272,56.88 C55.8284812,57.4483228 55.95136,58.0550368 55.95136,58.70016 C55.95136,59.3452832 55.8284812,59.9519972 55.58272,60.52032 C55.3369588,61.0886428 54.9990422,61.5878378 54.56896,62.01792 C54.1388778,62.4480022 53.6396828,62.7859188 53.07136,63.03168 C52.5030372,63.2774412 51.8963232,63.40032 51.2512,63.40032 C50.6060768,63.40032 49.9993628,63.2774412 49.43104,63.03168 C48.8627172,62.7859188 48.3635222,62.4480022 47.93344,62.01792 C47.5033578,61.5878378 47.1654412,61.0886428 46.91968,60.52032 C46.6739188,59.9519972 46.55104,59.3452832 46.55104,58.70016 Z M70.46656,74.736 L70.46656,91.41696 L62.12608,91.41696 L62.12608,74.736 L59.36128,74.736 L59.36128,67.77792 L62.12608,67.77792 L62.12608,60.6816 L70.46656,60.6816 L70.46656,67.77792 L75.2128,67.77792 L75.2128,74.736 L70.46656,74.736 Z M96.1792,75.4272 C94.7353528,74.4441551 93.2761674,73.95264 91.8016,73.95264 C91.002876,73.95264 90.2579235,74.0908786 89.56672,74.36736 C88.8755165,74.6438414 88.2688026,75.0355175 87.74656,75.5424 C87.2243174,76.0492825 86.8172815,76.6483165 86.52544,77.33952 C86.2335985,78.0307235 86.08768,78.8063957 86.08768,79.66656 C86.08768,80.4960041 86.2335985,81.2563165 86.52544,81.94752 C86.8172815,82.6387235 87.2166375,83.2377575 87.72352,83.74464 C88.2304025,84.2515225 88.8371165,84.6431986 89.54368,84.91968 C90.2502435,85.1961614 91.002876,85.3344 91.8016,85.3344 C93.3683278,85.3344 94.8275132,84.7968054 96.1792,83.7216 L96.1792,90.81792 C94.1209497,91.7088045 92.1702492,92.15424 90.32704,92.15424 C88.6067114,92.15424 86.9708878,91.8624029 85.41952,91.27872 C83.8681522,90.6950371 82.5011259,89.8579255 81.3184,88.76736 C80.1356741,87.6767945 79.1910435,86.3712076 78.48448,84.85056 C77.7779165,83.3299124 77.42464,81.6326494 77.42464,79.75872 C77.42464,77.8847906 77.7625566,76.1721678 78.4384,74.6208 C79.1142434,73.0694322 80.0358342,71.7331256 81.2032,70.61184 C82.3705658,69.4905544 83.7606319,68.6150431 85.37344,67.98528 C86.9862481,67.3555169 88.7142308,67.04064 90.55744,67.04064 C92.5849701,67.04064 94.4588714,67.4707157 96.1792,68.33088 L96.1792,75.4272 Z M108.80512,79.48224 C108.80512,80.280964 108.951039,81.0105567 109.24288,81.67104 C109.534721,82.3315233 109.918718,82.9075175 110.39488,83.39904 C110.871042,83.8905625 111.439357,84.2745586 112.09984,84.55104 C112.760323,84.8275214 113.459196,84.96576 114.19648,84.96576 C114.933764,84.96576 115.632637,84.8275214 116.29312,84.55104 C116.953603,84.2745586 117.521918,83.8905625 117.99808,83.39904 C118.474242,82.9075175 118.858239,82.3315233 119.15008,81.67104 C119.441921,81.0105567 119.58784,80.2963238 119.58784,79.52832 C119.58784,78.7910363 119.441921,78.0921633 119.15008,77.43168 C118.858239,76.7711967 118.474242,76.1952025 117.99808,75.70368 C117.521918,75.2121575 116.953603,74.8281614 116.29312,74.55168 C115.632637,74.2751986 114.933764,74.13696 114.19648,74.13696 C113.459196,74.13696 112.760323,74.2751986 112.09984,74.55168 C111.439357,74.8281614 110.871042,75.2121575 110.39488,75.70368 C109.918718,76.1952025 109.534721,76.7635168 109.24288,77.40864 C108.951039,78.0537632 108.80512,78.7449563 108.80512,79.48224 Z M100.00384,79.39008 C100.00384,77.6390312 100.357116,76.0032076 101.06368,74.48256 C101.770244,72.9619124 102.753274,71.6409656 104.0128,70.51968 C105.272326,69.3983944 106.769911,68.5152032 108.5056,67.87008 C110.241289,67.2249568 112.13823,66.9024 114.19648,66.9024 C116.22401,66.9024 118.105591,67.2172769 119.84128,67.84704 C121.576969,68.4768031 123.082234,69.3523144 124.35712,70.4736 C125.632006,71.5948856 126.622716,72.9311922 127.32928,74.48256 C128.035844,76.0339278 128.38912,77.7465506 128.38912,79.62048 C128.38912,81.4944094 128.028164,83.2070322 127.30624,84.7584 C126.584316,86.3097678 125.593606,87.6460744 124.33408,88.76736 C123.074554,89.8886456 121.561609,90.7564769 119.7952,91.37088 C118.028791,91.9852831 116.11649,92.29248 114.05824,92.29248 C112.03071,92.29248 110.156809,91.9852831 108.43648,91.37088 C106.716151,90.7564769 105.233926,89.8809657 103.98976,88.74432 C102.745594,87.6076743 101.770244,86.2483279 101.06368,84.66624 C100.357116,83.0841521 100.00384,81.3254497 100.00384,79.39008 Z M141.52192,67.77792 L141.52192,91.41696 L133.18144,91.41696 L133.18144,67.77792 L141.52192,67.77792 Z M132.62848,58.70016 C132.62848,58.0550368 132.751359,57.4483228 132.99712,56.88 C133.242881,56.3116772 133.580798,55.8124822 134.01088,55.3824 C134.440962,54.9523178 134.940157,54.6144012 135.50848,54.36864 C136.076803,54.1228788 136.683517,54 137.32864,54 C137.973763,54 138.580477,54.1228788 139.1488,54.36864 C139.717123,54.6144012 140.216318,54.9523178 140.6464,55.3824 C141.076482,55.8124822 141.414399,56.3116772 141.66016,56.88 C141.905921,57.4483228 142.0288,58.0550368 142.0288,58.70016 C142.0288,59.3452832 141.905921,59.9519972 141.66016,60.52032 C141.414399,61.0886428 141.076482,61.5878378 140.6464,62.01792 C140.216318,62.4480022 139.717123,62.7859188 139.1488,63.03168 C138.580477,63.2774412 137.973763,63.40032 137.32864,63.40032 C136.683517,63.40032 136.076803,63.2774412 135.50848,63.03168 C134.940157,62.7859188 134.440962,62.4480022 134.01088,62.01792 C133.580798,61.5878378 133.242881,61.0886428 132.99712,60.52032 C132.751359,59.9519972 132.62848,59.3452832 132.62848,58.70016 Z M147.23584,67.77792 L155.57632,67.77792 L155.57632,70.77312 C156.712966,69.3907131 157.864954,68.4614424 159.03232,67.98528 C160.199686,67.5091176 161.566712,67.27104 163.13344,67.27104 C164.792328,67.27104 166.213114,67.5398373 167.39584,68.07744 C168.578566,68.6150427 169.584636,69.3753551 170.41408,70.3584 C171.089923,71.157124 171.550719,72.0479951 171.79648,73.03104 C172.042241,74.0140849 172.16512,75.1353537 172.16512,76.39488 L172.16512,91.41696 L163.82464,91.41696 L163.82464,79.48224 C163.82464,78.3148742 163.740161,77.3702436 163.5712,76.64832 C163.402239,75.9263964 163.102722,75.3504022 162.67264,74.92032 C162.303998,74.5516782 161.889282,74.2905608 161.42848,74.13696 C160.967678,73.9833592 160.476163,73.90656 159.95392,73.90656 C158.540793,73.90656 157.457924,74.3289558 156.70528,75.17376 C155.952636,76.0185642 155.57632,77.2243122 155.57632,78.79104 L155.57632,91.41696 L147.23584,91.41696 L147.23584,67.77792 Z M25.03168,126.00768 L27.10528,126.00768 C28.6720078,126.00768 30.0697539,125.761922 31.29856,125.2704 C32.5273661,124.778878 33.5641558,124.103044 34.40896,123.24288 C35.2537642,122.382716 35.8988778,121.361286 36.34432,120.17856 C36.7897622,118.995834 37.01248,117.697927 37.01248,116.2848 C37.01248,114.902393 36.7820823,113.612166 36.32128,112.41408 C35.8604777,111.215994 35.2076842,110.186884 34.36288,109.32672 C33.5180758,108.466556 32.4812861,107.790722 31.25248,107.2992 C30.0236739,106.807678 28.6412877,106.56192 27.10528,106.56192 L25.03168,106.56192 L25.03168,126.00768 Z M16,98.91264 L29.3632,98.91264 C31.7286518,98.91264 33.9481496,99.3887952 36.02176,100.34112 C38.0953704,101.293445 39.9078322,102.560632 41.4592,104.14272 C43.0105678,105.724808 44.2316755,107.567989 45.12256,109.67232 C46.0134445,111.776651 46.45888,113.980788 46.45888,116.2848 C46.45888,118.558091 46.0211244,120.746869 45.1456,122.8512 C44.2700756,124.955531 43.0566478,126.806392 41.50528,128.40384 C39.9539122,130.001288 38.1414504,131.276155 36.06784,132.22848 C33.9942296,133.180805 31.759372,133.65696 29.3632,133.65696 L16,133.65696 L16,98.91264 Z M68.71552,118.40448 C68.4390386,117.237114 67.8707243,116.300164 67.01056,115.5936 C66.1503957,114.887036 65.1059261,114.53376 63.87712,114.53376 C62.5868735,114.53376 61.5347241,114.871677 60.72064,115.54752 C59.9065559,116.223363 59.3920011,117.175674 59.17696,118.40448 L68.71552,118.40448 Z M58.94656,123.24288 C58.94656,126.837138 60.6361431,128.63424 64.01536,128.63424 C65.8278491,128.63424 67.1948754,127.896967 68.11648,126.4224 L76.18048,126.4224 C74.5523119,131.829147 70.4819526,134.53248 63.96928,134.53248 C61.97247,134.53248 60.1446483,134.232963 58.48576,133.63392 C56.8268717,133.034877 55.4060859,132.182406 54.22336,131.07648 C53.0406341,129.970554 52.1267232,128.649608 51.4816,127.1136 C50.8364768,125.577592 50.51392,123.85729 50.51392,121.95264 C50.51392,119.98655 50.8211169,118.212488 51.43552,116.6304 C52.0499231,115.048312 52.9254343,113.704326 54.06208,112.5984 C55.1987257,111.492474 56.5734319,110.640003 58.18624,110.04096 C59.7990481,109.441917 61.6191899,109.1424 63.64672,109.1424 C65.64353,109.1424 67.440632,109.441917 69.03808,110.04096 C70.635528,110.640003 71.9871945,111.507834 73.09312,112.64448 C74.1990455,113.781126 75.0438371,115.171192 75.62752,116.81472 C76.2112029,118.458248 76.50304,120.30911 76.50304,122.36736 L76.50304,123.24288 L58.94656,123.24288 Z M86.68672,110.01792 L92.30848,122.13696 L98.0224,110.01792 L107.33056,110.01792 L95.0272,133.65696 L89.45152,133.65696 L77.2864,110.01792 L86.68672,110.01792 Z M25.03168,155.48352 L36.0448,141.15264 L47.19616,141.15264 L33.41824,157.6032 L48.4864,175.89696 L36.78208,175.89696 L25.03168,160.8288 L25.03168,175.89696 L16,175.89696 L16,141.15264 L25.03168,141.15264 L25.03168,155.48352 Z M60.05248,152.25792 L60.05248,175.89696 L51.712,175.89696 L51.712,152.25792 L60.05248,152.25792 Z M51.15904,143.18016 C51.15904,142.535037 51.2819188,141.928323 51.52768,141.36 C51.7734412,140.791677 52.1113578,140.292482 52.54144,139.8624 C52.9715222,139.432318 53.4707172,139.094401 54.03904,138.84864 C54.6073628,138.602879 55.2140768,138.48 55.8592,138.48 C56.5043232,138.48 57.1110372,138.602879 57.67936,138.84864 C58.2476828,139.094401 58.7468778,139.432318 59.17696,139.8624 C59.6070422,140.292482 59.9449588,140.791677 60.19072,141.36 C60.4364812,141.928323 60.55936,142.535037 60.55936,143.18016 C60.55936,143.825283 60.4364812,144.431997 60.19072,145.00032 C59.9449588,145.568643 59.6070422,146.067838 59.17696,146.49792 C58.7468778,146.928002 58.2476828,147.265919 57.67936,147.51168 C57.1110372,147.757441 56.5043232,147.88032 55.8592,147.88032 C55.2140768,147.88032 54.6073628,147.757441 54.03904,147.51168 C53.4707172,147.265919 52.9715222,146.928002 52.54144,146.49792 C52.1113578,146.067838 51.7734412,145.568643 51.52768,145.00032 C51.2819188,144.431997 51.15904,143.825283 51.15904,143.18016 Z M75.07456,159.216 L75.07456,175.89696 L66.73408,175.89696 L66.73408,159.216 L63.96928,159.216 L63.96928,152.25792 L66.73408,152.25792 L66.73408,145.1616 L75.07456,145.1616 L75.07456,152.25792 L79.8208,152.25792 L79.8208,159.216 L75.07456,159.216 Z" id="Bitcoin-Dev-Kit" fill="#13161F"></path>
            </g>
        </g>
    </g>
</svg>